<?xml version="1.0" encoding="UTF-8"?>
<svg width="224" height="55" viewBox="0 0 224 55" fill="none" xmlns="http://www.w3.org/2000/svg">
<path d="M2.80849 20.0286H0V34.4654H2.80849V20.0286Z" fill="white"/>
<path d="M13.0737 30.7037L9.9747 20.0286H5.32617V34.4654H8.13466V23.4853L11.621 34.4654H14.6232L18.1096 23.4853V34.4654H20.9181V20.0286H16.2696L13.0737 30.7037Z" fill="white"/>
<path d="M31.1831 30.7037L28.0841 20.0286H23.4355V34.4654H26.244V23.4853L29.7304 34.4654H32.7326L36.219 23.4853V34.4654H39.0275V20.0286H34.379L31.1831 30.7037Z" fill="white"/>
<path d="M44.3554 20.0286H41.5469V34.4654H44.3554V20.0286Z" fill="white"/>
<path d="M52.8776 22.4686C54.3302 22.4686 55.4924 23.1803 56.1703 24.502L58.5914 22.977C57.3324 21.0453 55.3955 19.8253 52.9744 19.8253C51.0375 19.8253 49.3912 20.5369 48.1322 21.9603C46.8732 23.3836 46.1953 25.112 46.1953 27.247C46.1953 29.382 46.7764 31.1104 48.0354 32.5338C49.2943 33.9571 50.9407 34.6688 52.9744 34.6688C53.9429 34.6688 54.7176 34.3638 55.4924 33.7538L55.8797 34.4654H58.6882V26.332H53.0713V28.9754H55.8797C55.8797 31.2121 54.6208 32.1271 52.9744 32.1271C51.7154 32.1271 50.8438 31.7204 50.1659 30.8054C49.488 29.8904 49.1975 28.772 49.1975 27.3487C49.1975 25.9253 49.488 24.807 50.1659 23.892C50.747 22.8753 51.7154 22.4686 52.8776 22.4686Z" fill="white"/>
<path d="M72.5362 24.7053C72.5362 22.8753 71.9551 21.5536 70.9867 20.9436C70.0182 20.3336 68.9529 20.0286 67.4034 20.0286H61.0117V34.4654H63.8202V29.382H66.2413L69.8245 34.4654H73.2141L69.534 29.1787C71.5677 28.5687 72.5362 27.1453 72.5362 24.7053ZM67.4034 26.7386H63.8202V22.5703H67.4034C68.8561 22.5703 69.7277 23.0786 69.7277 24.6036C69.7277 26.2303 68.9529 26.7386 67.4034 26.7386Z" fill="white"/>
<path d="M79.0248 20.0286L73.6016 34.4654H76.6037L77.7659 31.3137H83.286L84.4481 34.4654H87.4503L82.027 20.0286H79.0248ZM78.8312 28.6703L80.5743 23.7903L82.3175 28.6703H78.8312Z" fill="white"/>
<path d="M86.1914 22.6719H90.4526V34.4654H93.261V22.6719H97.5222V20.0286H86.1914V22.6719Z" fill="white"/>
<path d="M101.978 20.0286H99.1699V34.4654H101.978V20.0286Z" fill="white"/>
<path d="M110.693 19.8253C108.756 19.8253 107.11 20.5369 105.851 21.9603C104.592 23.3836 103.914 25.112 103.914 27.247C103.914 29.2804 104.592 31.1104 105.851 32.5338C107.11 33.9571 108.756 34.6688 110.693 34.6688C112.63 34.6688 114.276 33.9571 115.535 32.5338C116.794 31.1104 117.472 29.382 117.472 27.247C117.472 25.2137 116.794 23.3836 115.535 21.9603C114.18 20.5369 112.63 19.8253 110.693 19.8253ZM113.502 30.7037C112.727 31.6187 111.855 32.1271 110.596 32.1271C109.434 32.1271 108.466 31.6187 107.691 30.7037C106.916 29.7887 106.626 28.6704 106.626 27.247C106.626 25.9253 107.013 24.7053 107.691 23.7903C108.466 22.8753 109.337 22.367 110.596 22.367C111.758 22.367 112.727 22.8753 113.502 23.7903C114.276 24.7053 114.567 25.8237 114.567 27.247C114.664 28.5687 114.276 29.7887 113.502 30.7037Z" fill="white"/>
<path d="M127.351 29.382L122.121 20.0286H119.312V34.4654H122.121V25.112L127.351 34.4654H130.837V20.0286H127.351V29.382Z" fill="white"/>
<path d="M174.223 28.6704H177.806L175.966 23.7903L174.223 28.6704Z" fill="white"/>
<path d="M148.754 22.4686C147.592 22.4686 146.623 22.977 145.848 23.892C145.074 24.807 144.783 25.9253 144.783 27.3487C144.783 28.6704 145.171 29.8904 145.848 30.8054C146.526 31.7204 147.495 32.2288 148.754 32.2288C149.432 32.2288 150.013 32.0254 150.497 31.8221L149.238 30.3987L151.078 28.467L152.24 29.6871C152.531 28.9754 152.724 28.2637 152.724 27.4504C152.724 26.1287 152.337 24.9087 151.659 23.9936C150.884 22.8753 149.916 22.4686 148.754 22.4686Z" fill="white"/>
<path d="M219.158 26.1287L222.063 20.0286H223.903V0H130.836V20.0286H140.811V22.672H133.644V25.722H139.552V28.3654H133.644V32.0254H141.005V34.6688H130.933V54.5957H224V22.5703L220.611 28.9754V34.4654H217.802V28.9754L213.154 20.0286H216.349L219.158 26.1287ZM153.788 34.9738L152.432 33.5504C151.367 34.2621 150.205 34.6688 148.849 34.6688C146.912 34.6688 145.266 33.9571 144.007 32.5337C142.748 31.1104 142.07 29.382 142.07 27.247C142.07 25.2137 142.748 23.3836 144.007 21.9603C145.266 20.5369 146.912 19.8253 148.849 19.8253C150.786 19.8253 152.432 20.5369 153.691 21.9603C154.95 23.3836 155.628 25.112 155.628 27.247C155.628 28.8737 155.241 30.3987 154.369 31.6187L155.725 33.0421L153.788 34.9738ZM168.605 27.4503C168.605 29.382 168.508 30.7037 167.927 31.9237C167.153 33.6521 165.7 34.6688 162.795 34.6688C160.567 34.6688 159.114 34.0588 158.243 32.7371C157.468 31.4154 157.178 29.8904 157.178 27.4503V20.0286H159.986V27.4503C159.986 28.772 159.986 29.4837 160.18 30.2971C160.567 31.5171 161.245 31.9237 162.795 32.0254C163.957 32.0254 164.731 31.6187 165.119 31.2121C165.312 31.0087 165.506 30.6021 165.603 30.1954C165.797 29.2804 165.797 28.772 165.797 27.4503V20.0286H168.605V27.4503ZM179.839 34.4654L178.677 31.3137H173.254L172.092 34.4654H169.089L174.513 20.0286H177.515L182.938 34.4654H179.839ZM193.591 34.4654H184.391V20.0286H187.199V31.8221H193.591V34.4654ZM198.336 34.4654H195.625V20.0286H198.433V34.4654H198.336ZM211.701 22.672H207.44V34.4654H204.631V22.672H200.467V20.0286H211.798V22.672H211.701Z" fill="white"/>
</svg>
